<svg width="48" height="48" viewBox="0 0 48 48" fill="none" xmlns="http://www.w3.org/2000/svg">
<path d="M25.9965 38.0008V15.6608L35.7565 25.4208C36.5365 26.2008 37.8165 26.2008 38.5965 25.4208C38.7819 25.2358 38.929 25.016 39.0294 24.7741C39.1298 24.5321 39.1814 24.2728 39.1814 24.0108C39.1814 23.7489 39.1298 23.4895 39.0294 23.2476C38.929 23.0056 38.7819 22.7859 38.5965 22.6008L25.4165 9.42083C25.2315 9.23542 25.0117 9.08832 24.7698 8.98796C24.5278 8.8876 24.2685 8.83594 24.0065 8.83594C23.7446 8.83594 23.4852 8.8876 23.2433 8.98796C23.0013 9.08832 22.7816 9.23542 22.5965 9.42083L9.39654 22.5808C9.21138 22.766 9.0645 22.9858 8.96429 23.2277C8.86408 23.4697 8.8125 23.729 8.8125 23.9908C8.8125 24.2527 8.86408 24.512 8.96429 24.7539C9.0645 24.9958 9.21138 25.2157 9.39654 25.4008C9.5817 25.586 9.80153 25.7329 10.0435 25.8331C10.2854 25.9333 10.5447 25.9849 10.8065 25.9849C11.0684 25.9849 11.3277 25.9333 11.5696 25.8331C11.8116 25.7329 12.0314 25.586 12.2165 25.4008L21.9965 15.6608V38.0008C21.9965 39.1008 22.8965 40.0008 23.9965 40.0008C25.0965 40.0008 25.9965 39.1008 25.9965 38.0008Z" fill="white"/>
</svg>
