<svg width="32" height="32" viewBox="0 0 32 32" fill="none" xmlns="http://www.w3.org/2000/svg">
<path d="M17.9965 30.0008V7.66083L27.7565 17.4208C28.5365 18.2008 29.8165 18.2008 30.5965 17.4208C30.7819 17.2358 30.929 17.016 31.0294 16.7741C31.1298 16.5321 31.1814 16.2728 31.1814 16.0108C31.1814 15.7489 31.1298 15.4895 31.0294 15.2476C30.929 15.0056 30.7819 14.7859 30.5965 14.6008L17.4165 1.42083C17.2315 1.23542 17.0117 1.08832 16.7698 0.987961C16.5278 0.887598 16.2685 0.835938 16.0065 0.835938C15.7446 0.835938 15.4852 0.887598 15.2433 0.987961C15.0013 1.08832 14.7816 1.23542 14.5965 1.42083L1.39654 14.5808C1.21138 14.766 1.0645 14.9858 0.964287 15.2277C0.864077 15.4697 0.8125 15.729 0.8125 15.9908C0.8125 16.2527 0.864077 16.512 0.964287 16.7539C1.0645 16.9958 1.21138 17.2157 1.39654 17.4008C1.5817 17.586 1.80153 17.7329 2.04345 17.8331C2.28538 17.9333 2.54468 17.9849 2.80654 17.9849C3.0684 17.9849 3.3277 17.9333 3.56963 17.8331C3.81156 17.7329 4.03138 17.586 4.21654 17.4008L13.9965 7.66083V30.0008C13.9965 31.1008 14.8965 32.0008 15.9965 32.0008C17.0965 32.0008 17.9965 31.1008 17.9965 30.0008Z" fill="white"/>
</svg>
