<svg width="163" height="163" viewBox="0 0 163 163" fill="none" xmlns="http://www.w3.org/2000/svg">
<path d="M2.00902 33.3233C3.64794 16.192 16.1696 3.55587 33.3037 1.94554C44.8395 0.861372 60.5856 0 81.5 0C102.886 0 118.869 0.900694 130.471 2.01929C147.167 3.62893 159.371 15.8335 160.981 32.529C162.099 44.1313 163 60.1136 163 81.5C163 102.886 162.099 118.869 160.981 130.471C159.371 147.167 147.167 159.371 130.471 160.981C118.869 162.099 102.886 163 81.5 163C60.5856 163 44.8395 162.139 33.3037 161.054C16.1697 159.444 3.64794 146.808 2.00902 129.677C0.895189 118.034 0 102.229 0 81.5C0 60.7713 0.895189 44.9661 2.00902 33.3233Z" fill="url(#paint0_linear_8366_37879)"/>
<path fill-rule="evenodd" clip-rule="evenodd" d="M104.148 64.0167C104.148 51.5962 93.0402 41.8516 81.0991 41.8516C69.1585 41.8516 58.0255 51.5962 58.0506 64.0167C58.0506 69.2172 60.4741 73.2817 62.6702 76.5383C64.3368 78.8862 65.599 80.9058 65.4728 84.1118C65.0433 89.7163 61.1555 92.8214 56.1321 93.4021C54.5666 93.6797 52.3956 93.5787 50.982 93.3263C48.1543 92.6447 45.2767 94.3613 44.5194 97.1888C43.7364 100.067 45.4281 103.121 48.3061 103.904C50.1236 104.358 52.017 104.485 53.8852 104.485C54.3817 104.485 54.8008 104.478 55.2594 104.456C55.711 104.434 56.2002 104.396 56.8387 104.333C61.9888 103.803 65.4979 102.086 67.7951 100.193C68.0224 100.016 68.5022 99.8396 68.9815 100.218C69.3858 100.597 69.3858 101.077 69.0825 101.783C68.9312 102.086 68.1487 103.349 68.1487 103.349C68.1487 103.349 67.9233 103.743 67.6768 104.168C67.487 104.496 67.2848 104.842 67.164 105.04C64.9171 108.069 62.9483 110.291 61.2314 111.982C59.7419 113.472 59.237 115.82 60.1205 117.94C60.373 118.597 60.7768 119.152 61.2817 119.657C63.3773 121.803 66.8613 121.727 68.906 119.758C71.077 117.637 73.2731 115.289 75.9495 111.376C78.0953 108.398 79.6855 105.065 80.6701 101.531C80.7042 101.418 80.7535 101.325 80.8156 101.257C80.892 101.173 80.9877 101.127 81.0991 101.127C81.3013 101.127 81.4526 101.278 81.5286 101.531C82.5132 105.065 84.1034 108.398 86.2492 111.376C88.9507 115.289 91.1217 117.637 93.2927 119.758C95.3374 121.727 98.8215 121.803 100.916 119.657C101.421 119.152 101.8 118.597 102.078 117.94C102.962 115.82 102.457 113.472 100.967 111.982C99.2253 110.316 97.256 108.095 95.0347 105.04C94.7315 104.586 94.05 103.349 94.05 103.349C94.05 103.349 93.7478 102.861 93.483 102.42C93.3213 102.15 93.1734 101.898 93.1162 101.783C92.8129 101.077 92.8129 100.597 93.2167 100.218C93.7216 99.8396 94.1763 99.9909 94.4036 100.193C96.7008 102.086 100.235 103.803 105.36 104.333C106.647 104.459 107.329 104.485 108.314 104.485C110.182 104.485 112.075 104.358 113.893 103.904C116.771 103.121 118.462 100.067 117.679 97.1888C116.922 94.3613 114.07 92.6447 111.217 93.3263C109.803 93.5787 107.632 93.6797 106.067 93.4021C101.043 92.7961 97.1554 89.7163 96.7259 84.1118C96.5997 80.9058 97.8368 78.8862 99.528 76.5383C101.75 73.2817 104.148 69.2172 104.148 64.0167ZM83.523 67.3238C83.523 70.9087 85.4667 71.8175 87.865 71.8175C90.2633 71.8175 92.2069 70.9087 92.2069 67.3238C92.2069 63.7391 90.2381 62.0729 87.8398 62.0729C85.4416 62.0729 83.523 63.7391 83.523 67.3238ZM69.9913 67.3238C69.9913 70.9087 71.9354 71.8175 74.3337 71.8175C76.732 71.8175 78.6757 70.9087 78.6757 67.3238C78.6757 63.7391 76.7069 62.0729 74.3086 62.0729C71.9103 62.0729 69.9913 63.7391 69.9913 67.3238Z" fill="white"/>
<defs>
<linearGradient id="paint0_linear_8366_37879" x1="-43.176" y1="17.3169" x2="144.901" y2="194.423" gradientUnits="userSpaceOnUse">
<stop stop-color="#A615A1"/>
<stop offset="0.315" stop-color="#7B15C1"/>
<stop offset="0.665" stop-color="#5D28B8"/>
<stop offset="1" stop-color="#1366C9"/>
</linearGradient>
</defs>
</svg>
