<svg width="32" height="32" viewBox="0 0 32 32" fill="none" xmlns="http://www.w3.org/2000/svg">
<path d="M22.3884 26.9851C22.2415 27.1254 22.067 27.2367 21.8749 27.3127C21.6828 27.3886 21.4769 27.4277 21.2689 27.4277C21.0609 27.4277 20.8549 27.3886 20.6628 27.3127C20.4707 27.2367 20.2962 27.1254 20.1493 26.9851L9.51057 16.849C9.3933 16.7375 9.30026 16.6051 9.23678 16.4593C9.1733 16.3135 9.14062 16.1572 9.14062 15.9993C9.14062 15.8415 9.1733 15.6852 9.23678 15.5394C9.30026 15.3936 9.3933 15.2611 9.51057 15.1496L20.1493 5.01352C20.7692 4.42295 21.7686 4.42295 22.3884 5.01352C23.0083 5.60409 23.0083 6.55623 22.3884 7.1468L13.1032 15.9933L22.4011 24.8518C23.0083 25.4424 23.0083 26.3946 22.3884 26.9851Z" fill="#1366C9"/>
</svg>
