<svg width="34" height="34" viewBox="0 0 34 34" fill="none" xmlns="http://www.w3.org/2000/svg">
<path d="M10.6494 6.04428L14.6176 8.26647L12.3954 4.29827L14.6176 0.330078L10.6494 2.55227L6.68121 0.330078L8.90339 4.29827L6.68121 8.26647L10.6494 6.04428ZM29.6967 21.5996L25.7285 19.3774L27.9507 23.3456L25.7285 27.3138L29.6967 25.0916L33.6649 27.3138L31.4427 23.3456L33.6649 19.3774L29.6967 21.5996ZM33.6649 0.330078L29.6967 2.55227L25.7285 0.330078L27.9507 4.29827L25.7285 8.26647L29.6967 6.04428L33.6649 8.26647L31.4427 4.29827L33.6649 0.330078ZM21.554 8.72678C20.935 8.10774 19.935 8.10774 19.3159 8.72678L0.792404 27.2503C0.173365 27.8694 0.173365 28.8693 0.792404 29.4884L4.50663 33.2026C5.12567 33.8216 6.12566 33.8216 6.7447 33.2026L25.2524 14.6949C25.8714 14.0759 25.8714 13.0759 25.2524 12.4569L21.554 8.72678ZM19.9191 17.4409L16.5541 14.0759L20.427 10.2029L23.7921 13.568L19.9191 17.4409Z" fill="url(#paint0_linear_8366_37866)"/>
<defs>
<linearGradient id="paint0_linear_8366_37866" x1="-8.50679" y1="-14.593" x2="39.2108" y2="-13.9888" gradientUnits="userSpaceOnUse">
<stop offset="0.07" stop-color="#0C7BFF"/>
<stop offset="0.325" stop-color="#650EFB"/>
<stop offset="0.74" stop-color="#9C0EFD"/>
<stop offset="0.980094" stop-color="#FB14F3"/>
</linearGradient>
</defs>
</svg>
